<mxfile host="app.diagrams.net" modified="2022-02-28T11:13:23.072Z" agent="5.0 (Windows NT 10.0; Win64; x64) AppleWebKit/537.36 (KHTML, like Gecko) Chrome/98.0.4758.102 Safari/537.36 Edg/98.0.1108.62" etag="1tEndH_mepd5am4cpd5j" version="16.6.4" type="github">
  <diagram id="xTA8kfvjMk7pbciFxcE1" name="Page-1">
    <mxGraphModel dx="989" dy="551" grid="1" gridSize="10" guides="1" tooltips="1" connect="1" arrows="1" fold="1" page="1" pageScale="1" pageWidth="850" pageHeight="1100" background="#ffffff" math="0" shadow="0">
      <root>
        <mxCell id="0" />
        <mxCell id="1" parent="0" />
        <mxCell id="BevQm-COK3e2YMtMbXGe-1" value="" style="edgeStyle=orthogonalEdgeStyle;rounded=1;orthogonalLoop=1;jettySize=auto;labelBackgroundColor=#F1FAEE;strokeColor=#457B9D;fontColor=#1D3557;" edge="1" parent="1" source="BevQm-COK3e2YMtMbXGe-2" target="BevQm-COK3e2YMtMbXGe-4">
          <mxGeometry relative="1" as="geometry" />
        </mxCell>
        <mxCell id="BevQm-COK3e2YMtMbXGe-2" value="START" style="ellipse;fillColor=#A8DADC;strokeColor=#457B9D;fontColor=#1D3557;rounded=1;" vertex="1" parent="1">
          <mxGeometry x="170" y="60" width="120" height="50" as="geometry" />
        </mxCell>
        <mxCell id="BevQm-COK3e2YMtMbXGe-3" value="" style="edgeStyle=orthogonalEdgeStyle;rounded=1;orthogonalLoop=1;jettySize=auto;labelBackgroundColor=#F1FAEE;strokeColor=#457B9D;fontColor=#1D3557;" edge="1" parent="1" source="BevQm-COK3e2YMtMbXGe-4" target="BevQm-COK3e2YMtMbXGe-9">
          <mxGeometry relative="1" as="geometry" />
        </mxCell>
        <mxCell id="BevQm-COK3e2YMtMbXGe-4" value="SHOW&#xa;MAIN MENU" style="shape=parallelogram;perimeter=parallelogramPerimeter;fixedSize=1;fillColor=#A8DADC;strokeColor=#457B9D;fontColor=#1D3557;rounded=0;" vertex="1" parent="1">
          <mxGeometry x="170" y="140" width="120" height="60" as="geometry" />
        </mxCell>
        <mxCell id="BevQm-COK3e2YMtMbXGe-5" value="" style="edgeStyle=orthogonalEdgeStyle;rounded=1;orthogonalLoop=1;jettySize=auto;labelBackgroundColor=#F1FAEE;strokeColor=#457B9D;fontColor=#1D3557;" edge="1" parent="1" source="BevQm-COK3e2YMtMbXGe-9" target="BevQm-COK3e2YMtMbXGe-11">
          <mxGeometry relative="1" as="geometry" />
        </mxCell>
        <mxCell id="BevQm-COK3e2YMtMbXGe-6" value="Play Game" style="edgeLabel;align=center;verticalAlign=middle;resizable=0;points=[];labelBackgroundColor=#FFFFFF;fontColor=#1D3557;rounded=1;" vertex="1" connectable="0" parent="BevQm-COK3e2YMtMbXGe-5">
          <mxGeometry x="-0.3022" y="-1" relative="1" as="geometry">
            <mxPoint as="offset" />
          </mxGeometry>
        </mxCell>
        <mxCell id="BevQm-COK3e2YMtMbXGe-7" value="" style="edgeStyle=orthogonalEdgeStyle;rounded=1;orthogonalLoop=1;jettySize=auto;labelBackgroundColor=#F1FAEE;strokeColor=#457B9D;fontColor=#1D3557;" edge="1" parent="1" source="BevQm-COK3e2YMtMbXGe-9" target="BevQm-COK3e2YMtMbXGe-12">
          <mxGeometry relative="1" as="geometry" />
        </mxCell>
        <mxCell id="BevQm-COK3e2YMtMbXGe-8" value="Exit" style="edgeLabel;align=center;verticalAlign=middle;resizable=0;points=[];labelBackgroundColor=#FFFFFF;fontColor=#1D3557;rounded=1;" vertex="1" connectable="0" parent="BevQm-COK3e2YMtMbXGe-7">
          <mxGeometry x="-0.2299" y="-1" relative="1" as="geometry">
            <mxPoint x="28" y="27" as="offset" />
          </mxGeometry>
        </mxCell>
        <mxCell id="BevQm-COK3e2YMtMbXGe-9" value="PLAYER&#xa;Â CHOOSES" style="rhombus;fillColor=#A8DADC;strokeColor=#457B9D;fontColor=#1D3557;rounded=0;" vertex="1" parent="1">
          <mxGeometry x="180" y="235" width="100" height="95" as="geometry" />
        </mxCell>
        <mxCell id="BevQm-COK3e2YMtMbXGe-10" value="" style="edgeStyle=orthogonalEdgeStyle;rounded=1;orthogonalLoop=1;jettySize=auto;labelBackgroundColor=#F1FAEE;strokeColor=#457B9D;fontColor=#1D3557;" edge="1" parent="1" source="BevQm-COK3e2YMtMbXGe-11" target="BevQm-COK3e2YMtMbXGe-13">
          <mxGeometry relative="1" as="geometry" />
        </mxCell>
        <mxCell id="BevQm-COK3e2YMtMbXGe-11" value="LOAD &#xa;FIRST LEVEL" style="fillColor=#A8DADC;strokeColor=#457B9D;fontColor=#1D3557;rounded=0;" vertex="1" parent="1">
          <mxGeometry x="170" y="385" width="120" height="60" as="geometry" />
        </mxCell>
        <mxCell id="BevQm-COK3e2YMtMbXGe-12" value="STOP" style="ellipse;fillColor=#A8DADC;strokeColor=#457B9D;fontColor=#1D3557;rounded=1;" vertex="1" parent="1">
          <mxGeometry x="330" y="385" width="120" height="60" as="geometry" />
        </mxCell>
        <mxCell id="BevQm-COK3e2YMtMbXGe-20" value="" style="edgeStyle=orthogonalEdgeStyle;rounded=1;orthogonalLoop=1;jettySize=auto;labelBackgroundColor=#F1FAEE;strokeColor=#457B9D;fontColor=#1D3557;" edge="1" parent="1" source="BevQm-COK3e2YMtMbXGe-13" target="BevQm-COK3e2YMtMbXGe-19">
          <mxGeometry relative="1" as="geometry" />
        </mxCell>
        <mxCell id="BevQm-COK3e2YMtMbXGe-13" value="CHOOSE&#xa;CHARACTER" style="shape=parallelogram;perimeter=parallelogramPerimeter;fixedSize=1;fillColor=#A8DADC;strokeColor=#457B9D;fontColor=#1D3557;rounded=0;" vertex="1" parent="1">
          <mxGeometry x="170" y="490" width="120" height="60" as="geometry" />
        </mxCell>
        <mxCell id="BevQm-COK3e2YMtMbXGe-111" value="" style="edgeStyle=orthogonalEdgeStyle;shape=connector;rounded=1;sketch=0;orthogonalLoop=1;jettySize=auto;entryX=0.5;entryY=0;entryDx=0;entryDy=0;shadow=0;labelBackgroundColor=#F1FAEE;fontFamily=Helvetica;fontSize=11;fontColor=#1D3557;endArrow=classic;strokeColor=#457B9D;dashed=1;" edge="1" parent="1" source="BevQm-COK3e2YMtMbXGe-14" target="BevQm-COK3e2YMtMbXGe-39">
          <mxGeometry relative="1" as="geometry">
            <Array as="points">
              <mxPoint x="230" y="700" />
              <mxPoint x="490" y="700" />
              <mxPoint x="490" y="40" />
              <mxPoint x="660" y="40" />
            </Array>
          </mxGeometry>
        </mxCell>
        <mxCell id="BevQm-COK3e2YMtMbXGe-14" value="SIMULATE LEVEL&#xa;AND HANDLE &#xa;INPUTS" style="fillColor=#A8DADC;strokeColor=#457B9D;fontColor=#1D3557;rounded=0;" vertex="1" parent="1">
          <mxGeometry x="170" y="620" width="120" height="60" as="geometry" />
        </mxCell>
        <mxCell id="BevQm-COK3e2YMtMbXGe-24" value="" style="edgeStyle=orthogonalEdgeStyle;rounded=1;orthogonalLoop=1;jettySize=auto;labelBackgroundColor=#F1FAEE;strokeColor=#457B9D;fontColor=#1D3557;entryX=0.515;entryY=0.602;entryDx=0;entryDy=0;entryPerimeter=0;" edge="1" parent="1" source="BevQm-COK3e2YMtMbXGe-16" target="BevQm-COK3e2YMtMbXGe-120">
          <mxGeometry relative="1" as="geometry">
            <mxPoint x="130" y="610" as="targetPoint" />
            <Array as="points">
              <mxPoint x="130" y="770" />
            </Array>
          </mxGeometry>
        </mxCell>
        <mxCell id="BevQm-COK3e2YMtMbXGe-25" value="No" style="edgeLabel;align=center;verticalAlign=middle;resizable=0;points=[];labelBackgroundColor=#FFFFFF;fontColor=#1D3557;rounded=1;" vertex="1" connectable="0" parent="BevQm-COK3e2YMtMbXGe-24">
          <mxGeometry x="-0.8248" y="-3" relative="1" as="geometry">
            <mxPoint x="-4" y="3" as="offset" />
          </mxGeometry>
        </mxCell>
        <mxCell id="BevQm-COK3e2YMtMbXGe-27" value="" style="edgeStyle=orthogonalEdgeStyle;rounded=1;orthogonalLoop=1;jettySize=auto;labelBackgroundColor=#F1FAEE;strokeColor=#457B9D;fontColor=#1D3557;" edge="1" parent="1" source="BevQm-COK3e2YMtMbXGe-16" target="BevQm-COK3e2YMtMbXGe-26">
          <mxGeometry relative="1" as="geometry">
            <Array as="points">
              <mxPoint x="230" y="830" />
              <mxPoint x="230" y="830" />
            </Array>
          </mxGeometry>
        </mxCell>
        <mxCell id="BevQm-COK3e2YMtMbXGe-32" value="Yes" style="edgeLabel;align=center;verticalAlign=middle;resizable=0;points=[];labelBackgroundColor=#FFFFFF;fontColor=#1D3557;rounded=1;" vertex="1" connectable="0" parent="BevQm-COK3e2YMtMbXGe-27">
          <mxGeometry x="-0.3467" y="1" relative="1" as="geometry">
            <mxPoint x="-1" y="4" as="offset" />
          </mxGeometry>
        </mxCell>
        <mxCell id="BevQm-COK3e2YMtMbXGe-16" value="LEVEL &#xa;FINISHED?&#xa;" style="rhombus;fillColor=#A8DADC;strokeColor=#457B9D;fontColor=#1D3557;rounded=0;" vertex="1" parent="1">
          <mxGeometry x="185" y="730" width="90" height="80" as="geometry" />
        </mxCell>
        <mxCell id="BevQm-COK3e2YMtMbXGe-23" value="" style="edgeStyle=orthogonalEdgeStyle;rounded=1;orthogonalLoop=1;jettySize=auto;entryX=0.5;entryY=0;entryDx=0;entryDy=0;labelBackgroundColor=#F1FAEE;strokeColor=#457B9D;fontColor=#1D3557;" edge="1" parent="1" source="BevQm-COK3e2YMtMbXGe-19" target="BevQm-COK3e2YMtMbXGe-14">
          <mxGeometry relative="1" as="geometry" />
        </mxCell>
        <mxCell id="BevQm-COK3e2YMtMbXGe-19" value="" style="shape=waypoint;size=6;pointerEvents=1;points=[];fillColor=#A8DADC;resizable=0;rotatable=0;perimeter=centerPerimeter;snapToPoint=1;strokeColor=#457B9D;fontColor=#1D3557;rounded=1;" vertex="1" parent="1">
          <mxGeometry x="210" y="570" width="40" height="40" as="geometry" />
        </mxCell>
        <mxCell id="BevQm-COK3e2YMtMbXGe-29" value="" style="edgeStyle=orthogonalEdgeStyle;rounded=1;orthogonalLoop=1;jettySize=auto;exitX=1;exitY=0.5;exitDx=0;exitDy=0;entryX=0.5;entryY=0;entryDx=0;entryDy=0;labelBackgroundColor=#F1FAEE;strokeColor=#457B9D;fontColor=#1D3557;" edge="1" parent="1" source="BevQm-COK3e2YMtMbXGe-26" target="BevQm-COK3e2YMtMbXGe-28">
          <mxGeometry relative="1" as="geometry" />
        </mxCell>
        <mxCell id="BevQm-COK3e2YMtMbXGe-37" value="Yes" style="edgeLabel;align=center;verticalAlign=middle;resizable=0;points=[];labelBackgroundColor=#FFFFFF;fontColor=#1D3557;rounded=1;" vertex="1" connectable="0" parent="BevQm-COK3e2YMtMbXGe-29">
          <mxGeometry x="-0.5565" y="-1" relative="1" as="geometry">
            <mxPoint x="9" y="-1" as="offset" />
          </mxGeometry>
        </mxCell>
        <mxCell id="BevQm-COK3e2YMtMbXGe-34" value="" style="edgeStyle=orthogonalEdgeStyle;rounded=1;orthogonalLoop=1;jettySize=auto;entryX=0.5;entryY=0;entryDx=0;entryDy=0;labelBackgroundColor=#F1FAEE;strokeColor=#457B9D;fontColor=#1D3557;" edge="1" parent="1" source="BevQm-COK3e2YMtMbXGe-26" target="BevQm-COK3e2YMtMbXGe-33">
          <mxGeometry relative="1" as="geometry" />
        </mxCell>
        <mxCell id="BevQm-COK3e2YMtMbXGe-36" value="No" style="edgeLabel;align=center;verticalAlign=middle;resizable=0;points=[];labelBackgroundColor=#FFFFFF;fontColor=#1D3557;rounded=1;" vertex="1" connectable="0" parent="BevQm-COK3e2YMtMbXGe-34">
          <mxGeometry x="0.0381" relative="1" as="geometry">
            <mxPoint x="19" as="offset" />
          </mxGeometry>
        </mxCell>
        <mxCell id="BevQm-COK3e2YMtMbXGe-26" value="IS CURRENT&#xa;LEVEL THE LAST &#xa;LEVEL?" style="rhombus;fillColor=#A8DADC;strokeColor=#457B9D;fontColor=#1D3557;rounded=0;" vertex="1" parent="1">
          <mxGeometry x="165" y="860" width="130" height="100" as="geometry" />
        </mxCell>
        <mxCell id="BevQm-COK3e2YMtMbXGe-31" value="" style="edgeStyle=orthogonalEdgeStyle;rounded=1;orthogonalLoop=1;jettySize=auto;labelBackgroundColor=#F1FAEE;strokeColor=#457B9D;fontColor=#1D3557;" edge="1" parent="1" source="BevQm-COK3e2YMtMbXGe-28" target="BevQm-COK3e2YMtMbXGe-30">
          <mxGeometry relative="1" as="geometry" />
        </mxCell>
        <mxCell id="BevQm-COK3e2YMtMbXGe-28" value="SHOW END &#xa;SCREEN" style="fillColor=#A8DADC;strokeColor=#457B9D;fontColor=#1D3557;rounded=0;" vertex="1" parent="1">
          <mxGeometry x="310" y="950" width="120" height="60" as="geometry" />
        </mxCell>
        <mxCell id="BevQm-COK3e2YMtMbXGe-30" value="STOP" style="ellipse;fillColor=#A8DADC;strokeColor=#457B9D;fontColor=#1D3557;rounded=1;" vertex="1" parent="1">
          <mxGeometry x="310" y="1050" width="120" height="60" as="geometry" />
        </mxCell>
        <mxCell id="BevQm-COK3e2YMtMbXGe-35" value="" style="edgeStyle=orthogonalEdgeStyle;rounded=1;orthogonalLoop=1;jettySize=auto;exitDx=0;exitDy=0;labelBackgroundColor=#F1FAEE;strokeColor=#457B9D;fontColor=#1D3557;startArrow=none;" edge="1" parent="1" source="BevQm-COK3e2YMtMbXGe-120">
          <mxGeometry relative="1" as="geometry">
            <mxPoint x="130" y="590" as="targetPoint" />
            <Array as="points">
              <mxPoint x="20" y="590" />
            </Array>
          </mxGeometry>
        </mxCell>
        <mxCell id="BevQm-COK3e2YMtMbXGe-33" value="LOAD &#xa;NEXT LEVEL" style="fillColor=#A8DADC;strokeColor=#457B9D;fontColor=#1D3557;rounded=0;" vertex="1" parent="1">
          <mxGeometry x="40" y="950" width="120" height="60" as="geometry" />
        </mxCell>
        <mxCell id="BevQm-COK3e2YMtMbXGe-38" value="LEVEL SIMULATION AND INPUT" style="text;align=center;verticalAlign=middle;resizable=0;points=[];autosize=1;strokeColor=none;fillColor=none;fontColor=#1D3557;rounded=1;" vertex="1" parent="1">
          <mxGeometry x="680" y="40" width="200" height="20" as="geometry" />
        </mxCell>
        <mxCell id="BevQm-COK3e2YMtMbXGe-41" value="" style="edgeStyle=orthogonalEdgeStyle;rounded=1;orthogonalLoop=1;jettySize=auto;labelBackgroundColor=#F1FAEE;strokeColor=#457B9D;fontColor=#1D3557;" edge="1" parent="1" source="BevQm-COK3e2YMtMbXGe-39" target="BevQm-COK3e2YMtMbXGe-40">
          <mxGeometry relative="1" as="geometry" />
        </mxCell>
        <mxCell id="BevQm-COK3e2YMtMbXGe-39" value="START" style="ellipse;fillColor=#A8DADC;strokeColor=#457B9D;fontColor=#1D3557;rounded=1;" vertex="1" parent="1">
          <mxGeometry x="600" y="90" width="120" height="50" as="geometry" />
        </mxCell>
        <mxCell id="BevQm-COK3e2YMtMbXGe-43" value="" style="edgeStyle=orthogonalEdgeStyle;rounded=1;orthogonalLoop=1;jettySize=auto;labelBackgroundColor=#F1FAEE;strokeColor=#457B9D;fontColor=#1D3557;" edge="1" parent="1" source="BevQm-COK3e2YMtMbXGe-40" target="BevQm-COK3e2YMtMbXGe-42">
          <mxGeometry relative="1" as="geometry" />
        </mxCell>
        <mxCell id="BevQm-COK3e2YMtMbXGe-40" value="PROCESS ENEMY&#xa;LOGIC" style="fillColor=#A8DADC;strokeColor=#457B9D;fontColor=#1D3557;rounded=0;" vertex="1" parent="1">
          <mxGeometry x="600" y="190" width="120" height="60" as="geometry" />
        </mxCell>
        <mxCell id="BevQm-COK3e2YMtMbXGe-45" value="" style="edgeStyle=orthogonalEdgeStyle;rounded=1;orthogonalLoop=1;jettySize=auto;labelBackgroundColor=#F1FAEE;strokeColor=#457B9D;fontColor=#1D3557;" edge="1" parent="1" source="BevQm-COK3e2YMtMbXGe-42" target="BevQm-COK3e2YMtMbXGe-44">
          <mxGeometry relative="1" as="geometry" />
        </mxCell>
        <mxCell id="BevQm-COK3e2YMtMbXGe-66" value="Yes" style="edgeLabel;align=center;verticalAlign=middle;resizable=0;points=[];labelBackgroundColor=#FFFFFF;fontColor=#1D3557;rounded=1;" vertex="1" connectable="0" parent="BevQm-COK3e2YMtMbXGe-45">
          <mxGeometry x="-0.2179" relative="1" as="geometry">
            <mxPoint as="offset" />
          </mxGeometry>
        </mxCell>
        <mxCell id="BevQm-COK3e2YMtMbXGe-47" value="" style="edgeStyle=orthogonalEdgeStyle;rounded=1;orthogonalLoop=1;jettySize=auto;labelBackgroundColor=#F1FAEE;strokeColor=#457B9D;fontColor=#1D3557;" edge="1" parent="1" source="BevQm-COK3e2YMtMbXGe-42" target="BevQm-COK3e2YMtMbXGe-46">
          <mxGeometry relative="1" as="geometry" />
        </mxCell>
        <mxCell id="BevQm-COK3e2YMtMbXGe-69" value="No" style="edgeLabel;align=center;verticalAlign=middle;resizable=0;points=[];labelBackgroundColor=#FFFFFF;fontColor=#1D3557;rounded=1;" vertex="1" connectable="0" parent="BevQm-COK3e2YMtMbXGe-47">
          <mxGeometry x="-0.2506" relative="1" as="geometry">
            <mxPoint y="5" as="offset" />
          </mxGeometry>
        </mxCell>
        <mxCell id="BevQm-COK3e2YMtMbXGe-42" value="MOVEMENT&#xa;KEYS &#xa;PRESSED?" style="rhombus;fillColor=#A8DADC;strokeColor=#457B9D;fontColor=#1D3557;rounded=0;" vertex="1" parent="1">
          <mxGeometry x="605" y="300" width="110" height="110" as="geometry" />
        </mxCell>
        <mxCell id="BevQm-COK3e2YMtMbXGe-61" value="" style="edgeStyle=orthogonalEdgeStyle;rounded=1;orthogonalLoop=1;jettySize=auto;labelBackgroundColor=#F1FAEE;strokeColor=#457B9D;fontColor=#1D3557;arcSize=20;" edge="1" parent="1" source="BevQm-COK3e2YMtMbXGe-44" target="BevQm-COK3e2YMtMbXGe-46">
          <mxGeometry relative="1" as="geometry">
            <Array as="points">
              <mxPoint x="820" y="440" />
            </Array>
          </mxGeometry>
        </mxCell>
        <mxCell id="BevQm-COK3e2YMtMbXGe-44" value="MOVE PLAYER" style="fillColor=#A8DADC;strokeColor=#457B9D;fontColor=#1D3557;rounded=0;" vertex="1" parent="1">
          <mxGeometry x="760" y="325" width="120" height="60" as="geometry" />
        </mxCell>
        <mxCell id="BevQm-COK3e2YMtMbXGe-49" value="" style="edgeStyle=orthogonalEdgeStyle;rounded=1;orthogonalLoop=1;jettySize=auto;entryX=0.5;entryY=0;entryDx=0;entryDy=0;labelBackgroundColor=#F1FAEE;strokeColor=#457B9D;fontColor=#1D3557;" edge="1" parent="1" target="BevQm-COK3e2YMtMbXGe-50">
          <mxGeometry relative="1" as="geometry">
            <mxPoint x="660" y="440" as="sourcePoint" />
            <mxPoint x="660.0434782608697" y="480.04347826086973" as="targetPoint" />
          </mxGeometry>
        </mxCell>
        <mxCell id="BevQm-COK3e2YMtMbXGe-46" value="" style="shape=waypoint;size=6;pointerEvents=1;points=[];fillColor=#A8DADC;resizable=0;rotatable=0;perimeter=centerPerimeter;snapToPoint=1;strokeColor=#457B9D;fontColor=#1D3557;rounded=1;" vertex="1" parent="1">
          <mxGeometry x="640" y="420" width="40" height="40" as="geometry" />
        </mxCell>
        <mxCell id="BevQm-COK3e2YMtMbXGe-52" value="" style="edgeStyle=orthogonalEdgeStyle;rounded=1;orthogonalLoop=1;jettySize=auto;labelBackgroundColor=#F1FAEE;strokeColor=#457B9D;fontColor=#1D3557;" edge="1" parent="1" source="BevQm-COK3e2YMtMbXGe-50" target="BevQm-COK3e2YMtMbXGe-51">
          <mxGeometry relative="1" as="geometry" />
        </mxCell>
        <mxCell id="BevQm-COK3e2YMtMbXGe-59" value="" style="edgeStyle=orthogonalEdgeStyle;rounded=1;orthogonalLoop=1;jettySize=auto;labelBackgroundColor=#F1FAEE;strokeColor=#457B9D;fontColor=#1D3557;" edge="1" parent="1" source="BevQm-COK3e2YMtMbXGe-50" target="BevQm-COK3e2YMtMbXGe-54">
          <mxGeometry relative="1" as="geometry" />
        </mxCell>
        <mxCell id="BevQm-COK3e2YMtMbXGe-50" value="LEFT MOUSE&#xa;CLICKED?" style="rhombus;fillColor=#A8DADC;strokeColor=#457B9D;fontColor=#1D3557;rounded=0;" vertex="1" parent="1">
          <mxGeometry x="605" y="470" width="110" height="110" as="geometry" />
        </mxCell>
        <mxCell id="BevQm-COK3e2YMtMbXGe-62" value="" style="edgeStyle=orthogonalEdgeStyle;rounded=1;orthogonalLoop=1;jettySize=auto;labelBackgroundColor=#F1FAEE;strokeColor=#457B9D;fontColor=#1D3557;" edge="1" parent="1" source="BevQm-COK3e2YMtMbXGe-51" target="BevQm-COK3e2YMtMbXGe-54">
          <mxGeometry relative="1" as="geometry">
            <Array as="points">
              <mxPoint x="820" y="610" />
            </Array>
          </mxGeometry>
        </mxCell>
        <mxCell id="BevQm-COK3e2YMtMbXGe-51" value="CREATE BULLET" style="fillColor=#A8DADC;strokeColor=#457B9D;fontColor=#1D3557;rounded=0;" vertex="1" parent="1">
          <mxGeometry x="760" y="495" width="120" height="60" as="geometry" />
        </mxCell>
        <mxCell id="BevQm-COK3e2YMtMbXGe-53" value="" style="edgeStyle=orthogonalEdgeStyle;rounded=1;orthogonalLoop=1;jettySize=auto;entryX=0.5;entryY=0;entryDx=0;entryDy=0;labelBackgroundColor=#F1FAEE;strokeColor=#457B9D;fontColor=#1D3557;" edge="1" parent="1" source="BevQm-COK3e2YMtMbXGe-54" target="BevQm-COK3e2YMtMbXGe-56">
          <mxGeometry relative="1" as="geometry">
            <mxPoint x="660.0434782608697" y="650.0434782608697" as="targetPoint" />
          </mxGeometry>
        </mxCell>
        <mxCell id="BevQm-COK3e2YMtMbXGe-54" value="" style="shape=waypoint;size=6;pointerEvents=1;points=[];fillColor=#A8DADC;resizable=0;rotatable=0;perimeter=centerPerimeter;snapToPoint=1;strokeColor=#457B9D;fontColor=#1D3557;rounded=1;" vertex="1" parent="1">
          <mxGeometry x="640" y="590" width="40" height="40" as="geometry" />
        </mxCell>
        <mxCell id="BevQm-COK3e2YMtMbXGe-55" value="" style="edgeStyle=orthogonalEdgeStyle;rounded=1;orthogonalLoop=1;jettySize=auto;labelBackgroundColor=#F1FAEE;strokeColor=#457B9D;fontColor=#1D3557;" edge="1" parent="1" source="BevQm-COK3e2YMtMbXGe-56" target="BevQm-COK3e2YMtMbXGe-57">
          <mxGeometry relative="1" as="geometry" />
        </mxCell>
        <mxCell id="BevQm-COK3e2YMtMbXGe-64" value="" style="edgeStyle=orthogonalEdgeStyle;rounded=1;orthogonalLoop=1;jettySize=auto;labelBackgroundColor=#F1FAEE;strokeColor=#457B9D;fontColor=#1D3557;" edge="1" parent="1" source="BevQm-COK3e2YMtMbXGe-56" target="BevQm-COK3e2YMtMbXGe-63">
          <mxGeometry relative="1" as="geometry" />
        </mxCell>
        <mxCell id="BevQm-COK3e2YMtMbXGe-56" value="MOUSE&#xa;MOVED?" style="rhombus;fillColor=#A8DADC;strokeColor=#457B9D;fontColor=#1D3557;rounded=0;" vertex="1" parent="1">
          <mxGeometry x="605" y="640" width="110" height="110" as="geometry" />
        </mxCell>
        <mxCell id="BevQm-COK3e2YMtMbXGe-65" value="" style="edgeStyle=orthogonalEdgeStyle;rounded=1;orthogonalLoop=1;jettySize=auto;labelBackgroundColor=#F1FAEE;strokeColor=#457B9D;fontColor=#1D3557;" edge="1" parent="1" source="BevQm-COK3e2YMtMbXGe-57" target="BevQm-COK3e2YMtMbXGe-63">
          <mxGeometry relative="1" as="geometry">
            <Array as="points">
              <mxPoint x="820" y="780" />
            </Array>
          </mxGeometry>
        </mxCell>
        <mxCell id="BevQm-COK3e2YMtMbXGe-57" value="ROTATE PLAYER&#xa;TO LOOK AT&#xa;MOUSE" style="fillColor=#A8DADC;strokeColor=#457B9D;fontColor=#1D3557;rounded=0;" vertex="1" parent="1">
          <mxGeometry x="760" y="665" width="120" height="60" as="geometry" />
        </mxCell>
        <mxCell id="BevQm-COK3e2YMtMbXGe-77" value="" style="edgeStyle=orthogonalEdgeStyle;rounded=1;orthogonalLoop=1;jettySize=auto;entryX=0.5;entryY=0;entryDx=0;entryDy=0;labelBackgroundColor=#F1FAEE;strokeColor=#457B9D;fontColor=#1D3557;" edge="1" parent="1" source="BevQm-COK3e2YMtMbXGe-63" target="BevQm-COK3e2YMtMbXGe-82">
          <mxGeometry relative="1" as="geometry" />
        </mxCell>
        <mxCell id="BevQm-COK3e2YMtMbXGe-63" value="" style="shape=waypoint;size=6;pointerEvents=1;points=[];fillColor=#A8DADC;resizable=0;rotatable=0;perimeter=centerPerimeter;snapToPoint=1;strokeColor=#457B9D;fontColor=#1D3557;rounded=1;" vertex="1" parent="1">
          <mxGeometry x="640" y="760" width="40" height="40" as="geometry" />
        </mxCell>
        <mxCell id="BevQm-COK3e2YMtMbXGe-71" value="Yes" style="edgeLabel;align=center;verticalAlign=middle;resizable=0;points=[];labelBackgroundColor=#FFFFFF;fontColor=#1D3557;rounded=1;" vertex="1" connectable="0" parent="1">
          <mxGeometry x="732.6744186046512" y="525" as="geometry" />
        </mxCell>
        <mxCell id="BevQm-COK3e2YMtMbXGe-72" value="Yes" style="edgeLabel;align=center;verticalAlign=middle;resizable=0;points=[];labelBackgroundColor=#FFFFFF;fontColor=#1D3557;rounded=1;" vertex="1" connectable="0" parent="1">
          <mxGeometry x="732.6744186046512" y="695" as="geometry" />
        </mxCell>
        <mxCell id="BevQm-COK3e2YMtMbXGe-74" value="No" style="edgeLabel;align=center;verticalAlign=middle;resizable=0;points=[];labelBackgroundColor=#FFFFFF;fontColor=#1D3557;rounded=1;" vertex="1" connectable="0" parent="1">
          <mxGeometry x="660" y="589.9963063063062" as="geometry" />
        </mxCell>
        <mxCell id="BevQm-COK3e2YMtMbXGe-75" value="No" style="edgeLabel;align=center;verticalAlign=middle;resizable=0;points=[];labelBackgroundColor=#FFFFFF;fontColor=#1D3557;rounded=1;" vertex="1" connectable="0" parent="1">
          <mxGeometry x="660" y="759.9963063063062" as="geometry" />
        </mxCell>
        <mxCell id="BevQm-COK3e2YMtMbXGe-85" value="" style="edgeStyle=orthogonalEdgeStyle;rounded=1;orthogonalLoop=1;jettySize=auto;labelBackgroundColor=#F1FAEE;strokeColor=#457B9D;fontColor=#1D3557;" edge="1" parent="1" source="BevQm-COK3e2YMtMbXGe-76" target="BevQm-COK3e2YMtMbXGe-84">
          <mxGeometry relative="1" as="geometry" />
        </mxCell>
        <mxCell id="BevQm-COK3e2YMtMbXGe-76" value="PROCESS &#xa;MOVEMENT FOR&#xa;BULLETS" style="fillColor=#A8DADC;strokeColor=#457B9D;fontColor=#1D3557;rounded=0;" vertex="1" parent="1">
          <mxGeometry x="600" y="930" width="120" height="60" as="geometry" />
        </mxCell>
        <mxCell id="BevQm-COK3e2YMtMbXGe-83" value="" style="edgeStyle=orthogonalEdgeStyle;rounded=1;orthogonalLoop=1;jettySize=auto;labelBackgroundColor=#F1FAEE;strokeColor=#457B9D;fontColor=#1D3557;" edge="1" parent="1" source="BevQm-COK3e2YMtMbXGe-82" target="BevQm-COK3e2YMtMbXGe-76">
          <mxGeometry relative="1" as="geometry" />
        </mxCell>
        <mxCell id="BevQm-COK3e2YMtMbXGe-82" value="RESET PLAYER POSITION&#xa;Â IF PLAYER IS IN INVALID&#xa;LOCATION" style="fillColor=#A8DADC;strokeColor=#457B9D;fontColor=#1D3557;rounded=0;" vertex="1" parent="1">
          <mxGeometry x="575" y="820" width="170" height="70" as="geometry" />
        </mxCell>
        <mxCell id="BevQm-COK3e2YMtMbXGe-87" value="" style="edgeStyle=orthogonalEdgeStyle;rounded=1;orthogonalLoop=1;jettySize=auto;labelBackgroundColor=#F1FAEE;strokeColor=#457B9D;fontColor=#1D3557;" edge="1" parent="1" source="BevQm-COK3e2YMtMbXGe-84" target="BevQm-COK3e2YMtMbXGe-86">
          <mxGeometry relative="1" as="geometry" />
        </mxCell>
        <mxCell id="BevQm-COK3e2YMtMbXGe-88" value="Yes" style="edgeLabel;align=center;verticalAlign=middle;resizable=0;points=[];labelBackgroundColor=#FFFFFF;fontColor=#1D3557;rounded=1;" vertex="1" connectable="0" parent="BevQm-COK3e2YMtMbXGe-87">
          <mxGeometry x="-0.2414" y="2" relative="1" as="geometry">
            <mxPoint x="5" y="2" as="offset" />
          </mxGeometry>
        </mxCell>
        <mxCell id="BevQm-COK3e2YMtMbXGe-90" value="" style="edgeStyle=orthogonalEdgeStyle;rounded=1;orthogonalLoop=1;jettySize=auto;labelBackgroundColor=#F1FAEE;strokeColor=#457B9D;fontColor=#1D3557;" edge="1" parent="1" source="BevQm-COK3e2YMtMbXGe-84" target="BevQm-COK3e2YMtMbXGe-89">
          <mxGeometry relative="1" as="geometry" />
        </mxCell>
        <mxCell id="BevQm-COK3e2YMtMbXGe-91" value="No" style="edgeLabel;align=center;verticalAlign=middle;resizable=0;points=[];labelBackgroundColor=#FFFFFF;fontColor=#1D3557;rounded=1;" vertex="1" connectable="0" parent="BevQm-COK3e2YMtMbXGe-90">
          <mxGeometry x="-0.0571" relative="1" as="geometry">
            <mxPoint y="-4" as="offset" />
          </mxGeometry>
        </mxCell>
        <mxCell id="BevQm-COK3e2YMtMbXGe-84" value="PLAYER &#xa;BULLET&#xa;COLLIDES WITH&#xa;ENEMY?" style="rhombus;fillColor=#A8DADC;strokeColor=#457B9D;fontColor=#1D3557;rounded=0;" vertex="1" parent="1">
          <mxGeometry x="598.75" y="1030" width="122.5" height="90" as="geometry" />
        </mxCell>
        <mxCell id="BevQm-COK3e2YMtMbXGe-92" value="" style="edgeStyle=orthogonalEdgeStyle;rounded=1;orthogonalLoop=1;jettySize=auto;labelBackgroundColor=#F1FAEE;strokeColor=#457B9D;fontColor=#1D3557;" edge="1" parent="1" source="BevQm-COK3e2YMtMbXGe-86" target="BevQm-COK3e2YMtMbXGe-89">
          <mxGeometry relative="1" as="geometry">
            <Array as="points">
              <mxPoint x="845" y="1150" />
            </Array>
          </mxGeometry>
        </mxCell>
        <mxCell id="BevQm-COK3e2YMtMbXGe-86" value="DELETE ENEMY &#xa;AND INCREASE &#xa;KILLS COUNTER" style="fillColor=#A8DADC;strokeColor=#457B9D;fontColor=#1D3557;rounded=0;" vertex="1" parent="1">
          <mxGeometry x="785" y="1045" width="120" height="60" as="geometry" />
        </mxCell>
        <mxCell id="BevQm-COK3e2YMtMbXGe-101" value="" style="edgeStyle=orthogonalEdgeStyle;rounded=1;orthogonalLoop=1;jettySize=auto;labelBackgroundColor=#F1FAEE;strokeColor=#457B9D;fontColor=#1D3557;" edge="1" parent="1" source="BevQm-COK3e2YMtMbXGe-89" target="BevQm-COK3e2YMtMbXGe-97">
          <mxGeometry relative="1" as="geometry" />
        </mxCell>
        <mxCell id="BevQm-COK3e2YMtMbXGe-89" value="" style="shape=waypoint;size=6;pointerEvents=1;points=[];fillColor=#A8DADC;resizable=0;rotatable=0;perimeter=centerPerimeter;snapToPoint=1;strokeColor=#457B9D;fontColor=#1D3557;rounded=1;" vertex="1" parent="1">
          <mxGeometry x="640" y="1130" width="40" height="40" as="geometry" />
        </mxCell>
        <mxCell id="BevQm-COK3e2YMtMbXGe-93" value="" style="edgeStyle=orthogonalEdgeStyle;rounded=1;orthogonalLoop=1;jettySize=auto;entryX=0.5;entryY=0;entryDx=0;entryDy=0;labelBackgroundColor=#F1FAEE;strokeColor=#457B9D;fontColor=#1D3557;shadow=0;sketch=0;" edge="1" parent="1" source="BevQm-COK3e2YMtMbXGe-97" target="BevQm-COK3e2YMtMbXGe-99">
          <mxGeometry relative="1" as="geometry" />
        </mxCell>
        <mxCell id="BevQm-COK3e2YMtMbXGe-94" value="Yes" style="edgeLabel;align=center;verticalAlign=middle;resizable=0;points=[];labelBackgroundColor=#FFFFFF;fontColor=#1D3557;rounded=1;" vertex="1" connectable="0" parent="BevQm-COK3e2YMtMbXGe-93">
          <mxGeometry x="-0.2414" y="2" relative="1" as="geometry">
            <mxPoint x="5" y="2" as="offset" />
          </mxGeometry>
        </mxCell>
        <mxCell id="BevQm-COK3e2YMtMbXGe-118" value="" style="edgeStyle=orthogonalEdgeStyle;shape=connector;rounded=1;sketch=0;orthogonalLoop=1;jettySize=auto;shadow=0;labelBackgroundColor=#F1FAEE;fontFamily=Helvetica;fontSize=11;fontColor=#1D3557;endArrow=classic;strokeColor=#457B9D;" edge="1" parent="1" source="BevQm-COK3e2YMtMbXGe-97" target="BevQm-COK3e2YMtMbXGe-117">
          <mxGeometry relative="1" as="geometry" />
        </mxCell>
        <mxCell id="BevQm-COK3e2YMtMbXGe-123" value="No" style="edgeLabel;align=center;verticalAlign=middle;resizable=0;points=[];fontSize=11;fontFamily=Helvetica;fontColor=#1D3557;" vertex="1" connectable="0" parent="BevQm-COK3e2YMtMbXGe-118">
          <mxGeometry x="-0.2583" y="-1" relative="1" as="geometry">
            <mxPoint y="-4" as="offset" />
          </mxGeometry>
        </mxCell>
        <mxCell id="BevQm-COK3e2YMtMbXGe-97" value="ENEMY&#xa;BULLET&#xa;COLLIDES WITH&#xa;PLAYER?" style="rhombus;fillColor=#A8DADC;strokeColor=#457B9D;fontColor=#1D3557;rounded=0;" vertex="1" parent="1">
          <mxGeometry x="598.75" y="1180" width="122.5" height="90" as="geometry" />
        </mxCell>
        <mxCell id="BevQm-COK3e2YMtMbXGe-104" value="" style="edgeStyle=orthogonalEdgeStyle;rounded=1;orthogonalLoop=1;jettySize=auto;labelBackgroundColor=#F1FAEE;strokeColor=#457B9D;fontColor=#1D3557;" edge="1" parent="1" source="BevQm-COK3e2YMtMbXGe-99" target="BevQm-COK3e2YMtMbXGe-103">
          <mxGeometry relative="1" as="geometry" />
        </mxCell>
        <mxCell id="BevQm-COK3e2YMtMbXGe-99" value="SHOW &#xa;&quot;GAME OVER&quot;&#xa;SCREEN" style="fillColor=#A8DADC;strokeColor=#457B9D;fontColor=#1D3557;rounded=0;" vertex="1" parent="1">
          <mxGeometry x="785" y="1310" width="120" height="60" as="geometry" />
        </mxCell>
        <mxCell id="BevQm-COK3e2YMtMbXGe-103" value="STOP PROGRAM" style="ellipse;fillColor=#A8DADC;strokeColor=#457B9D;fontColor=#1D3557;rounded=1;" vertex="1" parent="1">
          <mxGeometry x="785" y="1400" width="120" height="60" as="geometry" />
        </mxCell>
        <mxCell id="BevQm-COK3e2YMtMbXGe-119" value="" style="edgeStyle=orthogonalEdgeStyle;shape=connector;rounded=1;sketch=0;orthogonalLoop=1;jettySize=auto;entryX=0.5;entryY=0;entryDx=0;entryDy=0;shadow=0;labelBackgroundColor=#F1FAEE;fontFamily=Helvetica;fontSize=11;fontColor=#1D3557;endArrow=classic;strokeColor=#457B9D;dashed=1;" edge="1" parent="1" source="BevQm-COK3e2YMtMbXGe-117" target="BevQm-COK3e2YMtMbXGe-16">
          <mxGeometry relative="1" as="geometry">
            <Array as="points">
              <mxPoint x="490" y="1320" />
              <mxPoint x="490" y="710" />
              <mxPoint x="230" y="710" />
            </Array>
          </mxGeometry>
        </mxCell>
        <mxCell id="BevQm-COK3e2YMtMbXGe-117" value="" style="shape=waypoint;sketch=0;size=6;pointerEvents=1;points=[];fillColor=#A8DADC;resizable=0;rotatable=0;perimeter=centerPerimeter;snapToPoint=1;strokeColor=#457B9D;fontColor=#1D3557;rounded=0;" vertex="1" parent="1">
          <mxGeometry x="640" y="1300" width="40" height="40" as="geometry" />
        </mxCell>
        <mxCell id="BevQm-COK3e2YMtMbXGe-122" value="" style="edgeStyle=orthogonalEdgeStyle;shape=connector;rounded=1;sketch=0;orthogonalLoop=1;jettySize=auto;shadow=0;labelBackgroundColor=#F1FAEE;fontFamily=Helvetica;fontSize=11;fontColor=#1D3557;endArrow=classic;strokeColor=#457B9D;" edge="1" parent="1" source="BevQm-COK3e2YMtMbXGe-120" target="BevQm-COK3e2YMtMbXGe-19">
          <mxGeometry relative="1" as="geometry" />
        </mxCell>
        <mxCell id="BevQm-COK3e2YMtMbXGe-120" value="" style="shape=waypoint;size=6;pointerEvents=1;points=[];fillColor=#A8DADC;resizable=0;rotatable=0;perimeter=centerPerimeter;snapToPoint=1;strokeColor=#457B9D;fontColor=#1D3557;rounded=1;" vertex="1" parent="1">
          <mxGeometry x="110" y="570" width="40" height="40" as="geometry" />
        </mxCell>
        <mxCell id="BevQm-COK3e2YMtMbXGe-121" value="" style="edgeStyle=orthogonalEdgeStyle;rounded=1;orthogonalLoop=1;jettySize=auto;exitX=0.5;exitY=1;exitDx=0;exitDy=0;labelBackgroundColor=#F1FAEE;strokeColor=#457B9D;fontColor=#1D3557;endArrow=none;" edge="1" parent="1" source="BevQm-COK3e2YMtMbXGe-33" target="BevQm-COK3e2YMtMbXGe-120">
          <mxGeometry relative="1" as="geometry">
            <mxPoint x="100" y="1010" as="sourcePoint" />
            <mxPoint x="230" y="590" as="targetPoint" />
            <Array as="points">
              <mxPoint x="100" y="1040" />
              <mxPoint x="20" y="1040" />
            </Array>
          </mxGeometry>
        </mxCell>
      </root>
    </mxGraphModel>
  </diagram>
</mxfile>
